#!OML:ASF F:\twosubjects\two\Thursday\Session 1\Rory.ASF
:FULLY-SPECIFIED
:DEGREES
522
root 7.78439 10.3406 12.7738 140.845 -13.0757 186.597
lowerback 45.7124 12.1101 -2.08725
upperback 16.6335 6.4452 -2.86952
thorax -2.13334 0.0596194 -4.3482
lowerneck -5.29935 -12.0518 -13.7786
upperneck -7.14602 -16.1922 25.0844
head 2.22331 -8.52094 8.99805
rclavicle -3.18055e-014 1.33583e-013
rhumerus -3.34843 18.0989 -79.8353
rradius 71.0182
rwrist 1.89524
rhand -33.4098 35.7501
rfingers 7.12502
rthumb -6.60984 5.87324
lclavicle -3.18055e-014 1.33583e-013
lhumerus 9.10713 -25.8177 54.9654
lradius 85.7313
lwrist -8.30718
lhand -8.44578 18.7276
lfingers 7.12502
lthumb 17.4799 47.9617
rfemur -49.268 3.18163 8.05923
rtibia 103.681
rfoot -4.9856 -19.7125
rtoes 15.8269
lfemur -45.1582 21.4734 11.6071
ltibia 69.2017
lfoot 22.1391 -0.833374
ltoes 21.0636
523
root 7.79325 10.3571 12.7771 140.85 -13.2738 186.263
lowerback 46.7729 11.7003 -1.55524
upperback 16.0585 6.07354 -3.62192
thorax -2.93479 -0.0209713 -5.3117
lowerneck -4.75485 -11.9301 -13.4012
upperneck -7.13179 -16.1121 25.2282
head 2.10405 -8.52725 9.032
rclavicle -1.43125e-014 6.04305e-014
rhumerus -4.26707 17.8165 -80.9853
rradius 71.2717
rwrist 2.05346
rhand -33.7202 35.771
rfingers 7.12502
rthumb -6.90946 5.90373
lclavicle -1.43125e-014 6.04305e-014
lhumerus 8.84408 -26.4497 54.253
lradius 85.6856
lwrist -8.31132
lhand -8.6352 18.4717
lfingers 7.12502
lthumb 17.2976 47.7219
rfemur -49.1906 2.82518 8.01822
rtibia 104.325
rfoot -6.95852 -20.2434
rtoes 19.475
lfemur -44.8769 21.2065 11.3216
ltibia 69.1019
lfoot 22.002 -0.267795
ltoes 22.1933
524
root 7.80195 10.3753 12.7755 140.789 -13.2403 186.198
lowerback 48.4543 11.4613 -1.23691
upperback 14.7727 5.79353 -3.98966
thorax -3.47081 -0.0856213 -5.70176
lowerneck -4.46944 -11.8255 -13.3946
upperneck -7.32129 -15.9658 25.2266
head 1.97344 -8.48237 9.0758
rclavicle -3.33958e-014 -8.90555e-014
rhumerus -4.69844 17.8363 -81.4702
rradius 71.4435
rwrist 2.11834
rhand -34.046 36.2842
rfingers 7.12502
rthumb -7.22397 6.4275
lclavicle -3.33958e-014 -8.90555e-014
lhumerus 8.43754 -26.5718 54.0146
lradius 85.9001
lwrist -8.12099
lhand -8.39735 18.6325
lfingers 7.12502
lthumb 17.5265 47.8624
rfemur -49.0614 2.64267 8.40699
rtibia 104.931
rfoot -8.25466 -20.8106
rtoes 21.3281
lfemur -44.5716 21.0739 11.4295
ltibia 68.9958
lfoot 21.8923 -0.0175253
ltoes 23.1666
525
root 7.80757 10.3752 12.7683 140.795 -12.8984 186.337
lowerback 48.696 11.2735 -0.616446
upperback 14.7171 5.82111 -4.0966
thorax -3.51897 -0.0410936 -6.11898
lowerneck -4.76559 -11.9247 -12.9653
upperneck -7.4804 -16.0683 24.8699
head 1.91963 -8.53234 8.86644
rclavicle 1.90833e-014 6.36111e-015
rhumerus -4.66263 17.4185 -81.7011
rradius 71.4477
rwrist 2.37498
rhand -33.667 37.2114
rfingers 7.12502
rthumb -6.85807 7.34244
lclavicle 1.90833e-014 6.36111e-015
lhumerus 8.58125 -26.7154 53.8004
lradius 85.8647
lwrist -8.01292
lhand -8.45789 18.5464
lfingers 7.12502
lthumb 17.4682 47.7815
rfemur -49.083 2.63789 9.20128
rtibia 105.52
rfoot -8.0675 -21.5225
rtoes 19.8901
lfemur -44.4372 21.1904 11.9465
ltibia 68.9548
lfoot 21.9123 0.155917
ltoes 23.7559
526
root 7.81443 10.3753 12.7563 140.944 -12.7328 186.396
lowerback 48.6382 11.1643 -0.240981
upperback 14.7369 5.87619 -4.16032
thorax -3.45525 0.0138413 -6.37977
lowerneck -5.26114 -11.9772 -12.6879
upperneck -7.24156 -16.1393 24.6212
head 2.03158 -8.52761 8.69453
rclavicle -6.36111e-014 6.04305e-014
rhumerus -4.62589 17.0926 -81.8646
rradius 71.4328
rwrist 2.57043
rhand -33.2916 37.4085
rfingers 7.12502
rthumb -6.49568 7.52816
lclavicle -6.36111e-014 6.04305e-014
lhumerus 8.85811 -26.8672 53.6566
lradius 85.5893
lwrist -8.0652
lhand -8.2997 18.1284
lfingers 7.12502
lthumb 17.6204 47.35
rfemur -49.2251 2.44391 9.72971
rtibia 106.113
rfoot -7.51675 -21.9413
rtoes 15.7318
lfemur -44.5146 21.3448 12.2138
ltibia 68.9497
lfoot 21.9976 0.317958
ltoes 24.2094
527
root 7.82434 10.3828 12.7425 141.282 -12.7673 185.925
lowerback 48.4971 11.3013 -0.524614
upperback 14.7411 5.89559 -4.29933
thorax -3.43473 0.0190067 -6.40285
lowerneck -5.66257 -11.9232 -12.5785
upperneck -7.04518 -16.0679 24.5324
head 2.12238 -8.46041 8.6267
rclavicle -2.22639e-014 -5.725e-014
rhumerus -4.60335 17.0871 -81.9561
rradius 71.4869
rwrist 2.39484
rhand -33.6467 35.8607
rfingers 7.12502
rthumb -6.8385 5.99113
lclavicle -2.22639e-014 -5.725e-014
lhumerus 8.92425 -26.8956 53.5998
lradius 85.4112
lwrist -7.93785
lhand -7.95896 17.7565
lfingers 7.12502
lthumb 17.9483 46.9483
rfemur -49.6184 2.23704 9.56718
rtibia 106.717
rfoot -8.32584 -22.1907
rtoes 15.0813
lfemur -44.5163 21.6019 11.8581
ltibia 68.9494
lfoot 21.9343 0.289161
ltoes 24.2179
528
root 7.82987 10.3845 12.7323 141.584 -12.7984 185.413
lowerback 48.7103 11.0589 -0.230578
upperback 14.6423 5.61901 -4.96245
thorax -3.53626 -0.066249 -7.1599
lowerneck -5.82091 -11.896 -12.0039
upperneck -7.20515 -16.075 24.5953
head 2.06182 -8.49731 8.55045
rclavicle 2.38542e-014 -9.54166e-015
rhumerus -4.67443 16.845 -82.6945
rradius 71.602
rwrist 2.10816
rhand -34.086 34.2888
rfingers 7.12502
rthumb -7.26258 4.43343
lclavicle 2.38542e-014 -9.54166e-015
lhumerus 8.82655 -26.9744 52.9257
lradius 85.6698
lwrist -7.74315
lhand -7.34489 17.276
lfingers 7.12502
lthumb 18.5391 46.4126
rfemur -49.9067 2.0227 9.36407
rtibia 107.164
rfoot -7.1507 -22.4739
rtoes 9.35704
lfemur -44.4795 21.805 11.4579
ltibia 68.9469
lfoot 21.8575 0.292694
ltoes 24.2856
529
root 7.83178 10.3849 12.726 141.803 -12.7717 185.386
lowerback 48.9629 10.2639 0.779325
upperback 14.4571 5.05086 -5.84636
thorax -3.73502 -0.221639 -8.39027
lowerneck -5.7109 -11.7603 -11.6394
upperneck -7.14085 -15.9875 24.9752
head 2.0573 -8.48995 8.62944
rclavicle -8.90555e-014 2.22639e-014
rhumerus -4.92923 16.7564 -83.8743
rradius 71.7352
rwrist 1.98914
rhand -34.0614 38.665
rfingers 7.12502
rthumb -7.23882 8.80883
lclavicle -8.90555e-014 2.22639e-014
lhumerus 8.41397 -27.0286 51.972
lradius 86.0934
lwrist -7.53863
lhand -6.73768 17.0448
lfingers 7.12502
lthumb 19.1231 46.1247
rfemur -50.0214 1.63844 9.62608
rtibia 107.518
rfoot -10.4075 -23.0253
rtoes 18.0449
lfemur -44.6276 21.7276 11.4372
ltibia 68.9419
lfoot 21.8046 0.361476
ltoes 23.9358
530
root 7.83889 10.39 12.7232 141.933 -12.5977 185.465
lowerback 48.9871 9.74533 1.4318
upperback 14.3861 4.71062 -6.2779
thorax -3.80753 -0.317792 -9.04541
lowerneck -5.60922 -11.5378 -11.8649
upperneck -6.95734 -15.746 25.4713
head 2.12373 -8.37635 8.85515
rclavicle -6.83819e-014 3.81667e-014
rhumerus -5.08176 16.8243 -84.6162
rradius 71.8128
rwrist 2.13511
rhand -33.6379 34.719
rfingers 7.12502
rthumb -6.83 4.84918
lclavicle -6.83819e-014 3.81667e-014
lhumerus 8.08881 -26.8845 51.5299
lradius 86.1401
lwrist -7.2834
lhand -7.10676 16.7156
lfingers 7.12502
lthumb 18.7681 45.8302
rfemur -50.1688 1.48344 9.96899
rtibia 107.937
rfoot -6.47427 -22.9379
rtoes 5.65477
lfemur -44.6212 21.5075 11.6902
ltibia 68.9282
lfoot 21.7381 0.478649
ltoes 23.303
531
root 7.84293 10.3896 12.7195 141.915 -12.1945 185.717
lowerback 46.0833 11.8309 -1.19742
upperback 16.341 6.59595 -2.55847
thorax -2.49506 0.205281 -4.52206
lowerneck -5.84536 -11.9234 -14.3168
upperneck -8.03585 -15.7473 24.2981
head 1.93219 -8.27355 8.88859
rclavicle 6.36111e-015 -7.31528e-014
rhumerus -3.83218 18.0641 -79.5392
rradius 72.0224
rwrist 1.58808
rhand -32.9311 33.5902
rfingers 7.12502
rthumb -6.14774 3.69938
lclavicle 6.36111e-015 -7.31528e-014
lhumerus 8.00254 -25.1821 56.6681
lradius 85.5413
lwrist -8.19696
lhand -7.50753 15.5504
lfingers 7.12502
lthumb 18.3826 44.7018
rfemur -50.1381 1.53631 10.4674
rtibia 108.323
rfoot -10.8163 -22.6665
rtoes 17.9016
lfemur -44.5149 21.4552 12.3577
ltibia 68.9675
lfoot 21.7296 0.933878
ltoes 24.6
532
root 7.84107 10.3827 12.7121 141.958 -11.9149 186.04
lowerback 46.2554 11.5221 -0.420901
upperback 16.2813 6.57258 -2.57098
thorax -2.53294 0.248613 -4.91215
lowerneck -6.07387 -11.9354 -14.202
upperneck -8.13093 -15.754 24.3481
head 1.94021 -8.27942 8.87379
rclavicle -7.31528e-014 -3.49861e-014
rhumerus -3.98325 17.8084 -79.6029
rradius 72.1441
rwrist 1.60376
rhand -32.7602 33.2696
rfingers 7.12502
rthumb -5.98272 3.37409
lclavicle -7.31528e-014 -3.49861e-014
lhumerus 8.01492 -25.2063 56.7945
lradius 85.4406
lwrist -8.2306
lhand -7.25656 14.6497
lfingers 7.12502
lthumb 18.6241 43.7782
rfemur -50.0334 1.27789 11.0537
rtibia 108.473
rfoot -13.1635 -22.6144
rtoes 22.2424
lfemur -44.6388 21.4542 12.9299
ltibia 69.0331
lfoot 21.6627 1.54024
ltoes 26.6026
533
root 7.84352 10.3774 12.701 142.228 -11.8637 185.822
lowerback 46.384 11.6581 -0.646346
upperback 16.0846 6.72055 -2.3697
thorax -2.81425 0.319139 -4.65085
lowerneck -6.39956 -11.9677 -14.3366
upperneck -7.8092 -15.7669 24.0906
head 2.07007 -8.23142 8.78102
rclavicle 6.52014e-014 -6.99722e-014
rhumerus -4.31212 17.9039 -79.2461
rradius 72.2647
rwrist 1.45457
rhand -33.279 33.3167
rfingers 7.12502
rthumb -6.48355 3.43594
lclavicle 6.52014e-014 -6.99722e-014
lhumerus 7.5838 -25.3285 57.3446
lradius 85.45
lwrist -8.12755
lhand -7.25611 14.3299
lfingers 7.12502
lthumb 18.6245 43.4583
rfemur -50.2053 1.01366 11.1518
rtibia 108.462
rfoot -12.4357 -23.5938
rtoes 18.9421
lfemur -44.7371 21.5275 12.7883
ltibia 69.0473
lfoot 21.548 1.67822
ltoes 26.2835
534
root 7.85234 10.3804 12.6941 142.565 -11.9163 185.222
lowerback 46.3694 12.0365 -1.26481
upperback 16.081 6.92079 -2.16778
thorax -2.87965 0.365251 -4.21168
lowerneck -6.90155 -12.0478 -14.3677
upperneck -7.5858 -15.8301 23.8058
head 2.1982 -8.2128 8.64899
rclavicle -1.43125e-014 -1.78111e-013
rhumerus -4.2109 17.9679 -78.6591
rradius 72.2749
rwrist 1.57474
rhand -33.5854 35.1847
rfingers 7.12502
rthumb -6.77933 5.31321
lclavicle -1.43125e-014 -1.78111e-013
lhumerus 7.56254 -25.3175 57.8196
lradius 85.4574
lwrist -8.41771
lhand -7.17563 14.9422
lfingers 7.12502
lthumb 18.7019 44.0632
rfemur -50.5574 0.928439 10.7195
rtibia 108.542
rfoot -10.7985 -24.2178
rtoes 13.2672
lfemur -44.6858 21.6529 12.2265
ltibia 68.997
lfoot 21.5285 1.47547
ltoes 24.8297
535
root 7.86358 10.3848 12.6895 142.812 -11.8855 184.895
lowerback 46.2389 12.0854 -1.65024
upperback 16.1243 6.82984 -2.01153
thorax -2.85918 0.289472 -3.81792
lowerneck -7.33164 -12.0083 -14.6152
upperneck -7.38564 -15.7184 23.5695
head 2.29861 -8.10982 8.59708
rclavicle -9.54166e-015 -7.4743e-014
rhumerus -3.89012 18.4355 -78.3038
rradius 72.2102
rwrist 1.87343
rhand -33.4855 36.3743
rfingers 7.12502
rthumb -6.68286 6.49974
lclavicle -9.54166e-015 -7.4743e-014
lhumerus 7.37735 -24.7998 58.3368
lradius 85.3614
lwrist -8.89737
lhand -6.33327 16.7783
lfingers 7.12502
lthumb 19.512 45.8192
rfemur -50.8791 0.835169 10.5235
rtibia 108.667
rfoot -10.4967 -24.4223
rtoes 10.6587
lfemur -44.6697 21.7435 12.0046
ltibia 68.9349
lfoot 21.5982 1.4042
ltoes 24.3772
